<?xml version="1.0" encoding="UTF-8"?>
<svg version="1.1" xmlns="http://www.w3.org/2000/svg" width="96" height="96">
<path d="M0 0 C2 2 2 2 2.3125 4.4375 C2 7 2 7 0.875 8.875 C-1 10 -1 10 -3.9375 9.8125 C-7 9 -7 9 -8.875 7.9375 C-12.25125119 6.44797742 -15.42844421 6.36291167 -19 7 C-21.97877724 8.29131794 -24.63682748 9.76058465 -27 12 C-27.76273057 14.08711176 -27.76273057 14.08711176 -28 16 C-26.9275 15.360625 -25.855 14.72125 -24.75 14.0625 C-17.46088967 9.71706884 -8.89960963 10.19575561 -0.8125 12 C0.445625 12.33 1.70375 12.66 3 13 C4.32 10.03 5.64 7.06 7 4 C9.25 4.1875 9.25 4.1875 12 5 C12.5775 5.845625 13.155 6.69125 13.75 7.5625 C16.28263776 10.30619091 16.86554093 10.46314555 20.4375 10.6875 C23.16993588 10.55673987 24.54554277 10.36335636 26.6953125 8.64453125 C28.24963362 6.8417221 28.24963362 6.8417221 30 4 C31.8125 4.125 31.8125 4.125 34 5 C39.04350637 12.95322158 40.31521683 22.7817392 39 32 C36.84061148 36.6442731 33.53510713 39.02633247 28.875 40.9375 C25.95696438 41.91603805 24.22322953 42 21 42 C21.02320313 42.85335937 21.04640625 43.70671875 21.0703125 44.5859375 C21.20176129 53.69346063 20.81388814 62.72547844 20.1875 71.8125 C20.08236084 73.53895752 20.08236084 73.53895752 19.97509766 75.30029297 C19.85400635 76.92475342 19.85400635 76.92475342 19.73046875 78.58203125 C19.62835083 80.03959839 19.62835083 80.03959839 19.52416992 81.52661133 C18.929595 84.33221849 18.28954564 85.31572457 16 87 C13.2356794 87.41464809 11.72104848 87.50675124 9.40307617 85.87768555 C7.39524492 83.19067839 7.36643036 80.90386241 7.05078125 77.58203125 C6.92509766 76.32841797 6.79941406 75.07480469 6.66992188 73.78320312 C6.49299805 71.81770508 6.49299805 71.81770508 6.3125 69.8125 C6.18285999 68.4770946 6.05201433 67.14180567 5.91992188 65.80664062 C5.60138745 62.5387134 5.29526773 59.27009806 5 56 C4.01 55.67 3.02 55.34 2 55 C1.89453857 55.86278564 1.78907715 56.72557129 1.68041992 57.61450195 C1.28246572 60.81951237 0.87304063 64.02278827 0.45581055 67.2253418 C0.27770243 68.61082523 0.10415817 69.99690341 -0.06469727 71.38354492 C-0.30841344 73.3783011 -0.56999913 75.37084833 -0.83203125 77.36328125 C-0.98389893 78.56251221 -1.1357666 79.76174316 -1.29223633 80.99731445 C-2.01444376 84.06127763 -2.45784214 85.2136294 -5 87 C-7.5 87.4375 -7.5 87.4375 -10 87 C-13.29280825 83.7112135 -13.5306877 80.64315654 -13.9140625 76.1171875 C-13.97403412 75.46170929 -14.03400574 74.80623108 -14.09579468 74.13088989 C-14.28446968 72.04646112 -14.45553385 69.96107056 -14.625 67.875 C-14.80472607 65.78220048 -14.98813008 63.68980409 -15.17562866 61.59768677 C-15.3437704 59.70490374 -15.50148518 57.81120311 -15.65869141 55.91748047 C-15.82436417 53.06772468 -15.82436417 53.06772468 -17 51 C-18.485 51.495 -18.485 51.495 -20 52 C-20.07516846 52.95366455 -20.15033691 53.9073291 -20.2277832 54.88989258 C-20.51044837 58.43017134 -20.81099272 61.96874392 -21.11694336 65.50708008 C-21.2468244 67.0382494 -21.3718626 68.56983758 -21.49194336 70.10180664 C-21.66547176 72.30483185 -21.85640595 74.50575967 -22.05078125 76.70703125 C-22.10091873 77.39150833 -22.15105621 78.07598541 -22.20271301 78.78120422 C-22.46663863 81.60607232 -22.7126696 83.60507694 -24.40307617 85.9284668 C-26.75779118 87.50847661 -28.23435886 87.4839872 -31 87 C-33.58318802 84.22049835 -34.38557926 82.2391689 -34.55249023 78.48193359 C-34.59941513 77.59355804 -34.64634003 76.7051825 -34.69468689 75.78988647 C-34.73227615 74.83570831 -34.76986542 73.88153015 -34.80859375 72.8984375 C-34.91721101 70.86067139 -35.02593851 68.82291116 -35.13476562 66.78515625 C-35.28871157 63.58631124 -35.43694592 60.38728018 -35.58129883 57.18798828 C-35.72592881 54.09055617 -35.89153463 50.99472915 -36.05859375 47.8984375 C-36.09415878 46.95640472 -36.12972382 46.01437195 -36.16636658 45.04379272 C-36.48834192 39.21029242 -37.65283643 34.6037151 -40.10926819 29.29263306 C-42.38653365 23.43123459 -41.46397318 17.61119598 -39.4375 11.8125 C-36.34736666 4.95391138 -32.04608862 0.65263334 -25.1875 -2.4375 C-16.12554489 -5.60438598 -8.43214633 -4.44309249 0 0 Z " fill="#9171A2" transform="translate(51,8)"/>
<path d="M0 0 C1.90625 0.82421875 1.90625 0.82421875 4.59375 2.32421875 C4.59375 3.31421875 4.59375 4.30421875 4.59375 5.32421875 C2.20810923 4.74837443 -0.07307784 4.1019428 -2.40625 3.32421875 C-8.77484114 2.63595787 -14.65647478 2.10825071 -20.03125 6.01171875 C-22.88976599 8.42710235 -24.80325377 10.9353018 -26.40625 14.32421875 C-26.76743491 17.90650091 -26.76743491 17.90650091 -26.59375 21.63671875 C-26.55314453 23.51810547 -26.55314453 23.51810547 -26.51171875 25.4375 C-26.47691406 26.39011719 -26.44210938 27.34273437 -26.40625 28.32421875 C-26.0659375 27.73253906 -25.725625 27.14085938 -25.375 26.53125 C-21.95796752 20.96039651 -18.80353989 16.40705732 -12.40625 14.32421875 C-2.29777307 12.82581282 6.29767702 14.20804483 14.59375 20.32421875 C22.4560526 28.31066297 24.41720368 35.29212673 24.59375 46.32421875 C24.36939473 52.61271806 23.74699717 58.87429973 23.15625 65.13671875 C23.00618561 66.81176182 22.85709064 68.48689203 22.70898438 70.16210938 C22.34838251 74.21723493 21.97477074 78.27096292 21.59375 82.32421875 C20.60375 82.32421875 19.61375 82.32421875 18.59375 82.32421875 C18.48305176 81.45619629 18.37235352 80.58817383 18.25830078 79.69384766 C17.84386858 76.476284 17.42184588 73.2598344 16.99462891 70.04394531 C16.81123379 68.65144081 16.63087687 67.25853268 16.45361328 65.86523438 C16.1984127 63.86354937 15.93140258 61.86338112 15.6640625 59.86328125 C15.50695801 58.65881348 15.34985352 57.4543457 15.18798828 56.21337891 C14.84639838 53.21009789 14.84639838 53.21009789 12.59375 51.32421875 C9.49448181 51.64620841 9.49448181 51.64620841 6.59375 52.32421875 C4.2868376 58.12158992 3.71052608 64.05307406 2.96875 70.19921875 C2.8346875 71.26914063 2.700625 72.3390625 2.5625 73.44140625 C2.2341278 76.06838384 1.91138588 78.69592509 1.59375 81.32421875 C-0.38625 81.81921875 -0.38625 81.81921875 -2.40625 82.32421875 C-2.91858099 78.40906526 -3.41376508 74.4919141 -3.90625 70.57421875 C-4.04933594 69.48238281 -4.19242188 68.39054687 -4.33984375 67.265625 C-5.24694453 59.96562348 -5.89670139 52.68417437 -5.40625 45.32421875 C-5.07625 44.99421875 -4.74625 44.66421875 -4.40625 44.32421875 C-4.25238458 41.53984636 -4.1745617 38.79738644 -4.15625 36.01171875 C-4.135625 35.23892578 -4.115 34.46613281 -4.09375 33.66992188 C-4.07020512 30.24708508 -4.09798438 27.92652234 -5.67578125 24.84375 C-8.20884694 22.6194553 -10.18529006 22.40939963 -13.46875 22.16796875 C-15.60580941 22.19277362 -15.60580941 22.19277362 -17.84375 23.82421875 C-19.81500077 26.97821998 -20.123468 29.64805272 -20.40625 33.32421875 C-19.74625 33.32421875 -19.08625 33.32421875 -18.40625 33.32421875 C-18.40625 34.31421875 -18.40625 35.30421875 -18.40625 36.32421875 C-19.06625 36.32421875 -19.72625 36.32421875 -20.40625 36.32421875 C-20.24326416 37.62866943 -20.08027832 38.93312012 -19.91235352 40.27709961 C-19.40085021 44.89686931 -19.27624817 49.43427859 -19.30859375 54.078125 C-19.3100087 54.86444809 -19.31142365 55.65077118 -19.31288147 56.46092224 C-19.31841328 58.9362289 -19.33095225 61.41144012 -19.34375 63.88671875 C-19.34877384 65.58007681 -19.35333519 67.2734363 -19.35742188 68.96679688 C-19.36836022 73.08597345 -19.38557638 77.20508 -19.40625 81.32421875 C-21.38625 81.81921875 -21.38625 81.81921875 -23.40625 82.32421875 C-23.72079798 78.32437713 -24.03263641 74.3243289 -24.34375 70.32421875 C-24.48296875 68.5455542 -24.48296875 68.5455542 -24.625 66.73095703 C-25.07734415 60.88154192 -25.49785279 55.03594348 -25.80273438 49.17700195 C-26.15687979 42.41065296 -26.63886597 36.25764487 -29.4453125 30.01171875 C-31.46009446 24.37688139 -31.5885529 17.50578063 -29.49609375 11.875 C-23.00253154 0.91319885 -12.4414637 -3.49411237 0 0 Z " fill="#DDDDDE" transform="translate(44.40625,8.67578125)"/>
<path d="M0 0 C1.70884005 1.62339805 3.37446717 3.29319053 5 5 C5 5.66 5 6.32 5 7 C12.34626576 7.23630843 12.34626576 7.23630843 18.91015625 4.59765625 C20.42592669 2.79949558 20.42592669 2.79949558 22 0 C24.7003441 2.7003441 24.97763317 5.56822822 25.6875 9.1875 C25.82994141 9.83525391 25.97238281 10.48300781 26.11914062 11.15039062 C27.0327001 15.70000772 27.04543069 19.48086312 26 24 C22.57634802 27.93719977 20.29521152 29.21719173 15.125 29.8125 C13.75113867 29.89638262 12.37600868 29.96636423 11 30 C10.72285156 29.22914062 10.44570312 28.45828125 10.16015625 27.6640625 C9.79792969 26.66117188 9.43570313 25.65828125 9.0625 24.625 C8.70285156 23.62726562 8.34320313 22.62953125 7.97265625 21.6015625 C7.07650708 19.06495835 7.07650708 19.06495835 6 17 C7.32 17 8.64 17 10 17 C8.88145414 13.27385847 8.88145414 13.27385847 6 11 C5.67 12.32 5.34 13.64 5 15 C4.67 13.68 4.34 12.36 4 11 C3.01 11.33 2.02 11.66 1 12 C-1.1875 10.5625 -1.1875 10.5625 -3 9 C-2.01 6.03 -1.02 3.06 0 0 Z " fill="#DAD8DC" transform="translate(60,16)"/>
<path d="M0 0 C3.07681204 1.38242449 4.23270621 2.99718557 5.96484375 5.8828125 C6.48010289 8.73649964 6.43471286 11.49180109 6.33984375 14.3828125 C6.33855469 15.12917969 6.33726563 15.87554687 6.3359375 16.64453125 C6.26946424 20.81757477 5.85371623 24.07484559 3.96484375 27.8828125 C2.97484375 27.2228125 1.98484375 26.5628125 0.96484375 25.8828125 C-3.06409277 25.4261551 -3.06409277 25.4261551 -6.6796875 26.953125 C-8.73042823 29.87262333 -8.56113424 32.54913271 -8.72265625 36.0703125 C-8.78839844 37.34261719 -8.85414062 38.61492187 -8.921875 39.92578125 C-8.97794922 41.38951172 -8.97794922 41.38951172 -9.03515625 42.8828125 C-9.36515625 42.8828125 -9.69515625 42.8828125 -10.03515625 42.8828125 C-10.36515625 33.6428125 -10.69515625 24.4028125 -11.03515625 14.8828125 C-10.37515625 14.8828125 -9.71515625 14.8828125 -9.03515625 14.8828125 C-9.03515625 13.8928125 -9.03515625 12.9028125 -9.03515625 11.8828125 C-9.69515625 11.8828125 -10.35515625 11.8828125 -11.03515625 11.8828125 C-11.45395539 7.61106131 -11.45116348 5.50682335 -9.03515625 1.8828125 C-5.52381055 -0.45808463 -4.03397933 -0.49526083 0 0 Z " fill="#BDBABE" transform="translate(35.03515625,30.1171875)"/>
<path d="M0 0 C2 2 2 2 2.3125 4.4375 C2 7 2 7 0.875 8.875 C-1 10 -1 10 -3.9375 9.8125 C-7 9 -7 9 -8.875 7.9375 C-13.36555022 5.9563749 -17.94481234 6.69851781 -22.5 8 C-23.325 8.33 -24.15 8.66 -25 9 C-24.625 6.5625 -24.625 6.5625 -24 4 C-19.20607236 1.60303618 -11.64963732 2.26256049 -6.5859375 3.671875 C-4.6875 4.5 -4.6875 4.5 -2 6 C-2 5.01 -2 4.02 -2 3 C-8.93178797 0.42073006 -17.48097238 -0.85322899 -24.4765625 2.015625 C-26.44127426 3.23713119 -28.2200733 4.52482502 -30 6 C-32.61845044 7.96383783 -35.02388849 9.61823394 -38 11 C-36.63467889 5.36805044 -32.52060684 2.24618044 -28 -1 C-18.81921198 -6.23304917 -9.05095577 -4.76915746 0 0 Z " fill="#997DA8" transform="translate(51,8)"/>
<path d="M0 0 C3.09176327 1.38914214 4.23645323 2.97163818 5.96484375 5.8828125 C6.43000532 8.84194739 6.34498979 11.70946206 6.21484375 14.6953125 C6.19679688 15.48357422 6.17875 16.27183594 6.16015625 17.08398438 C6.11328423 19.01745511 6.04154785 20.95029535 5.96484375 22.8828125 C4.64484375 22.8828125 3.32484375 22.8828125 1.96484375 22.8828125 C1.63484375 16.9428125 1.30484375 11.0028125 0.96484375 4.8828125 C-2.00515625 4.3878125 -2.00515625 4.3878125 -5.03515625 3.8828125 C-7.60061565 6.4482719 -7.57561712 8.35967918 -8.03515625 11.8828125 C-9.02515625 11.8828125 -10.01515625 11.8828125 -11.03515625 11.8828125 C-11.45395539 7.61106131 -11.45116348 5.50682335 -9.03515625 1.8828125 C-5.52381055 -0.45808463 -4.03397933 -0.49526083 0 0 Z " fill="#987DA7" transform="translate(35.03515625,30.1171875)"/>
<path d="M0 0 C1.134375 0.020625 2.26875 0.04125 3.4375 0.0625 C2.7775 2.0425 2.1175 4.0225 1.4375 6.0625 C-0.8725 6.0625 -3.1825 6.0625 -5.5625 6.0625 C-4.48849278 0.07874549 -4.48849278 0.07874549 0 0 Z " fill="#9A7EA9" transform="translate(80.5625,26.9375)"/>
<path d="M0 0 C0.99 0 1.98 0 3 0 C3 2.97 3 5.94 3 9 C2.01 9 1.02 9 0 9 C0 6.03 0 3.06 0 0 Z " fill="#9273A2" transform="translate(24,45)"/>
</svg>
