<?xml version="1.0" standalone="no"?><svg xmlns="http://www.w3.org/2000/svg" viewBox="0 0 1440 320"><path fill="#BE185D" fill-opacity="1" d="M0,32L6.2,58.7C12.3,85,25,139,37,170.7C49.2,203,62,213,74,202.7C86.2,192,98,160,111,133.3C123.1,107,135,85,148,74.7C160,64,172,64,185,101.3C196.9,139,209,213,222,240C233.8,267,246,245,258,218.7C270.8,192,283,160,295,149.3C307.7,139,320,149,332,138.7C344.6,128,357,96,369,96C381.5,96,394,128,406,170.7C418.5,213,431,267,443,256C455.4,245,468,171,480,133.3C492.3,96,505,96,517,112C529.2,128,542,160,554,149.3C566.2,139,578,85,591,64C603.1,43,615,53,628,64C640,75,652,85,665,106.7C676.9,128,689,160,702,154.7C713.8,149,726,107,738,112C750.8,117,763,171,775,176C787.7,181,800,139,812,149.3C824.6,160,837,224,849,240C861.5,256,874,224,886,192C898.5,160,911,128,923,106.7C935.4,85,948,75,960,74.7C972.3,75,985,85,997,85.3C1009.2,85,1022,75,1034,80C1046.2,85,1058,107,1071,117.3C1083.1,128,1095,128,1108,106.7C1120,85,1132,43,1145,64C1156.9,85,1169,171,1182,176C1193.8,181,1206,107,1218,90.7C1230.8,75,1243,117,1255,149.3C1267.7,181,1280,203,1292,186.7C1304.6,171,1317,117,1329,85.3C1341.5,53,1354,43,1366,58.7C1378.5,75,1391,117,1403,122.7C1415.4,128,1428,96,1434,80L1440,64L1440,0L1433.8,0C1427.7,0,1415,0,1403,0C1390.8,0,1378,0,1366,0C1353.8,0,1342,0,1329,0C1316.9,0,1305,0,1292,0C1280,0,1268,0,1255,0C1243.1,0,1231,0,1218,0C1206.2,0,1194,0,1182,0C1169.2,0,1157,0,1145,0C1132.3,0,1120,0,1108,0C1095.4,0,1083,0,1071,0C1058.5,0,1046,0,1034,0C1021.5,0,1009,0,997,0C984.6,0,972,0,960,0C947.7,0,935,0,923,0C910.8,0,898,0,886,0C873.8,0,862,0,849,0C836.9,0,825,0,812,0C800,0,788,0,775,0C763.1,0,751,0,738,0C726.2,0,714,0,702,0C689.2,0,677,0,665,0C652.3,0,640,0,628,0C615.4,0,603,0,591,0C578.5,0,566,0,554,0C541.5,0,529,0,517,0C504.6,0,492,0,480,0C467.7,0,455,0,443,0C430.8,0,418,0,406,0C393.8,0,382,0,369,0C356.9,0,345,0,332,0C320,0,308,0,295,0C283.1,0,271,0,258,0C246.2,0,234,0,222,0C209.2,0,197,0,185,0C172.3,0,160,0,148,0C135.4,0,123,0,111,0C98.5,0,86,0,74,0C61.5,0,49,0,37,0C24.6,0,12,0,6,0L0,0Z"></path></svg>